<svg width="76" height="76" viewBox="0 0 76 76" fill="none" xmlns="http://www.w3.org/2000/svg">
<path d="M38 76C58.9868 76 76 58.9868 76 38C76 17.0132 58.9868 0 38 0C17.0132 0 0 17.0132 0 38C0 58.9868 17.0132 76 38 76Z" fill="url(#paint0_radial_113_688)"/>
<g clip-path="url(#clip0_113_688)">
<path d="M57.56 18.3388H18.4399C17.6725 18.3396 16.9368 18.6449 16.3941 19.1875C15.8515 19.7302 15.5463 20.4659 15.5454 21.2333V47.8104C15.5463 48.5778 15.8515 49.3135 16.3942 49.8561C16.9368 50.3988 17.6725 50.704 18.4399 50.7049H34.2561C33.3862 52.3441 32.3337 53.6433 31.1847 54.4853C31.1833 54.4862 31.1822 54.4874 31.181 54.4883C30.5744 54.5487 30.012 54.8322 29.6026 55.2838C29.1933 55.7355 28.9662 56.323 28.9655 56.9325V58.6868C28.9655 58.8729 29.0394 59.0514 29.171 59.183C29.3026 59.3146 29.4811 59.3885 29.6672 59.3885H46.3327C46.5188 59.3885 46.6973 59.3146 46.8289 59.183C46.9605 59.0514 47.0344 58.8729 47.0344 58.6868V56.9325C47.0336 56.3148 46.8002 55.72 46.3808 55.2664C45.9614 54.8129 45.3866 54.5338 44.7708 54.4848C44.7345 54.4368 44.6922 54.3938 44.6448 54.3567C43.5633 53.5146 42.5693 52.2615 41.7434 50.705H57.56C58.3274 50.7041 59.0631 50.3989 59.6057 49.8562C60.1484 49.3136 60.4536 48.5779 60.4545 47.8105V21.2333C60.4536 20.4659 60.1484 19.7302 59.6058 19.1875C59.0631 18.6449 58.3274 18.3396 57.56 18.3388ZM18.4399 19.7422H57.56C57.9553 19.7426 58.3343 19.8999 58.6139 20.1794C58.8934 20.459 59.0507 20.838 59.0511 21.2333V43.7916H57.3845V22.1104C57.3845 21.9243 57.3106 21.7459 57.179 21.6143C57.0474 21.4827 56.8689 21.4087 56.6828 21.4087H19.3171C19.131 21.4087 18.9525 21.4827 18.8209 21.6143C18.6893 21.7459 18.6154 21.9243 18.6154 22.1104V43.7916H16.9488V21.2333C16.9493 20.838 17.1065 20.459 17.386 20.1794C17.6656 19.8999 18.0446 19.7426 18.4399 19.7422ZM55.9811 43.7916H20.0188V22.8121H55.9811V43.7916ZM45.631 56.9325V57.9851H30.3689V56.9325C30.3692 56.6535 30.4802 56.3859 30.6775 56.1886C30.8749 55.9913 31.1424 55.8803 31.4215 55.88H44.5784C44.8575 55.8803 45.125 55.9913 45.3224 56.1886C45.5197 56.3859 45.6307 56.6535 45.631 56.9325ZM42.7001 54.4766H33.2996C34.2543 53.4735 35.1128 52.196 35.8274 50.7049H40.1728C40.8864 52.1936 41.7457 53.4733 42.7001 54.4766ZM57.56 49.3015H18.4399C18.0446 49.301 17.6656 49.1438 17.386 48.8643C17.1065 48.5847 16.9493 48.2057 16.9488 47.8104V45.195H59.0511V47.8104C59.0507 48.2057 58.8934 48.5847 58.6139 48.8643C58.3343 49.1438 57.9553 49.301 57.56 49.3015ZM38.7039 47.2483C38.7041 47.3872 38.6631 47.5231 38.5862 47.6388C38.5092 47.7544 38.3997 47.8447 38.2715 47.8981C38.1433 47.9516 38.0021 47.9659 37.8658 47.9391C37.7295 47.9124 37.6041 47.8459 37.5056 47.748C37.407 47.65 37.3397 47.5251 37.3122 47.389C37.2846 47.2528 37.298 47.1115 37.3506 46.983C37.4033 46.8544 37.4929 46.7444 37.6081 46.6667C37.7232 46.589 37.8588 46.5472 37.9978 46.5466H38.0021C38.1883 46.5466 38.3667 46.6205 38.4983 46.7521C38.6299 46.8837 38.7039 47.0622 38.7039 47.2483ZM37.7508 42.7609C37.9113 42.822 38.0886 42.822 38.2491 42.7609C41.2881 41.6064 43.4704 39.5304 44.7357 36.5906C45.7707 34.1859 46.1775 31.2371 45.9453 27.8261C45.9368 27.7009 45.8949 27.5802 45.8239 27.4767C45.7529 27.3732 45.6555 27.2907 45.5418 27.2376L38.2967 23.8629C38.2039 23.8196 38.1028 23.7972 38.0004 23.7972C37.898 23.7972 37.7969 23.8196 37.7041 23.8629L30.459 27.2376C30.3453 27.2907 30.2478 27.3732 30.1769 27.4767C30.1059 27.5802 30.064 27.7009 30.0555 27.8261C29.8233 31.2372 30.2302 34.186 31.2652 36.5906C32.5295 39.5303 34.7119 41.6064 37.7508 42.7609ZM31.4302 28.3332L38 25.273L44.5697 28.3332C44.8179 33.0719 43.8218 38.9864 38 41.3511C32.1779 38.9864 31.1818 33.0719 31.4302 28.3332ZM43.2277 33.0037C43.2277 31.9698 42.9211 30.959 42.3466 30.0993C41.7722 29.2397 40.9557 28.5696 40.0005 28.1739C39.0453 27.7783 37.9942 27.6747 36.9801 27.8764C35.966 28.0782 35.0345 28.5761 34.3034 29.3072C33.5723 30.0383 33.0744 30.9698 32.8727 31.9838C32.671 32.9979 32.7745 34.049 33.1702 35.0043C33.5659 35.9595 34.2359 36.7759 35.0956 37.3504C35.9553 37.9248 36.966 38.2314 38 38.2314C39.386 38.2299 40.7148 37.6787 41.6949 36.6986C42.6749 35.7186 43.2262 34.3897 43.2277 33.0037ZM34.1765 33.0037C34.1765 32.2473 34.4008 31.5079 34.8211 30.879C35.2413 30.2501 35.8385 29.76 36.5373 29.4705C37.2361 29.1811 38.0051 29.1053 38.7469 29.2529C39.4888 29.4005 40.1702 29.7647 40.705 30.2995C41.2399 30.8344 41.6041 31.5158 41.7516 32.2576C41.8992 32.9995 41.8235 33.7684 41.534 34.4672C41.2446 35.166 40.7544 35.7633 40.1255 36.1835C39.4966 36.6037 38.7572 36.828 38.0008 36.828C36.9868 36.8271 36.0146 36.4239 35.2975 35.7069C34.5804 34.9899 34.1771 34.0177 34.1761 33.0037H34.1765ZM40.4407 32.2595L37.9599 34.7404C37.8947 34.8056 37.8174 34.8573 37.7322 34.8925C37.6471 34.9278 37.5558 34.946 37.4637 34.946C37.3715 34.946 37.2803 34.9278 37.1951 34.8925C37.11 34.8573 37.0326 34.8056 36.9675 34.7404L35.56 33.333C35.4284 33.2014 35.3545 33.0229 35.3545 32.8368C35.3545 32.6507 35.4284 32.4722 35.56 32.3406C35.6916 32.209 35.8701 32.1351 36.0562 32.1351C36.2423 32.1351 36.4208 32.209 36.5524 32.3406L37.4637 33.2518L39.4484 31.2672C39.5802 31.1369 39.7583 31.0641 39.9436 31.0646C40.129 31.0652 40.3066 31.139 40.4377 31.2701C40.5688 31.4012 40.6427 31.5788 40.6432 31.7642C40.6438 31.9495 40.571 32.1276 40.4407 32.2595Z" fill="white"/>
</g>
<g clip-path="url(#clip1_113_688)">
<path d="M75.2578 30.4697L73.6888 29.5568L65.0112 20.5526L62.5486 8.99083C58.737 5.76517 54.327 3.32235 49.5707 1.80202C44.8145 0.28169 39.8052 -0.286341 34.8293 0.130396C29.8534 0.547134 25.0085 1.94047 20.5714 4.23075C16.1343 6.52104 12.192 9.66336 8.97006 13.4781L10.0937 18.3602L4.2735 39.5348L0.335449 43.0765C2.82029 61.6639 18.7343 76 38 76C43.7933 76.0053 49.5109 74.6836 54.7141 72.1363C59.9174 69.5889 64.468 65.8837 68.017 61.3047L67.3387 60.132L71.0021 51.2109L74.1816 49.6553C76.1676 43.456 76.538 36.8523 75.2578 30.4697Z" fill="#80A4DB"/>
<path d="M19.9782 40.0781C19.7539 38.3957 19.6414 36.7003 19.6412 35.0031C19.6441 27.6383 21.7852 20.4328 25.8047 14.2616C29.8241 8.09038 35.5489 3.21898 42.2839 0.238988C36.0707 -0.460556 29.781 0.381434 23.9706 2.69052C18.1602 4.99961 13.0082 8.70466 8.97006 13.4781L10.0937 18.3602L4.2735 39.5348L0.335449 43.0766C2.82029 61.6639 18.7343 76 38 76C43.2907 76.0064 48.5242 74.9046 53.3633 72.7655C36.0703 70.824 22.273 57.2731 19.9782 40.0781Z" fill="#6D95D2"/>
<path d="M25.7287 50.5385C26.1961 51.0061 26.5143 51.6018 26.6431 52.2502C26.772 52.8986 26.7056 53.5707 26.4525 54.1814C26.1994 54.7921 25.7709 55.3141 25.2212 55.6813C24.6715 56.0485 24.0252 56.2445 23.3641 56.2444H18.1094C17.248 56.2081 16.4339 55.8404 15.8373 55.218C15.2406 54.5956 14.9075 53.7668 14.9075 52.9046C14.9075 52.0424 15.2406 51.2136 15.8373 50.5912C16.4339 49.9688 17.248 49.6011 18.1094 49.5648H23.3641C23.8033 49.5646 24.2382 49.651 24.644 49.8191C25.0498 49.9872 25.4184 50.2337 25.7287 50.5444V50.5385Z" fill="#DD3F8F"/>
<path d="M18.1094 56.2445H23.3641C24.1804 56.2456 24.9687 55.9466 25.5788 55.4043C24.3949 53.5482 23.3752 51.5923 22.5314 49.5588H18.1094C17.248 49.5952 16.4339 49.9629 15.8373 50.5853C15.2406 51.2076 14.9075 52.0365 14.9075 52.8987C14.9075 53.7609 15.2406 54.5897 15.8373 55.2121C16.4339 55.8344 17.248 56.2022 18.1094 56.2385V56.2445Z" fill="#CD3582"/>
<path d="M74.1817 49.6479C72.8242 53.864 70.7378 57.8094 68.0171 61.3047L60.2776 61.1562C59.3117 61.1562 58.3854 60.7727 57.7023 60.0899C57.0193 59.407 56.6353 58.4809 56.6349 57.5151C56.6351 57.3483 56.6024 57.1832 56.5387 57.0292C56.475 56.8751 56.3815 56.7351 56.2636 56.6172C56.1457 56.4993 56.0057 56.4058 55.8517 56.3421C55.6976 56.2784 55.5325 56.2457 55.3658 56.2459H39.9105C39.049 56.2096 38.235 55.8418 37.6383 55.2195C37.0416 54.5971 36.7085 53.7683 36.7085 52.9061C36.7085 52.0439 37.0416 51.2151 37.6383 50.5927C38.235 49.9703 39.049 49.6026 39.9105 49.5662L74.1817 49.6479Z" fill="#DD3F8F"/>
<path d="M75.2578 30.4698L53.6186 30.4995C52.5935 30.4795 51.6171 30.0583 50.8991 29.3262C50.1812 28.5942 49.7791 27.6098 49.7791 26.5844C49.7791 25.5591 50.1812 24.5747 50.8991 23.8427C51.6171 23.1106 52.5935 22.6894 53.6186 22.6694H57.9129C58.6397 22.6526 59.3311 22.3521 59.8392 21.8321C60.3474 21.3121 60.6318 20.614 60.6318 19.8869C60.6318 19.1599 60.3474 18.4618 59.8392 17.9418C59.3311 17.4218 58.6397 17.1213 57.9129 17.1045H56.525C55.4593 17.1045 54.4373 16.6811 53.6837 15.9276C52.9301 15.174 52.5068 14.152 52.5068 13.0863C52.5068 12.0206 52.9301 10.9985 53.6837 10.245C54.4373 9.49142 55.4593 9.06808 56.525 9.06808L62.5545 8.99089C69.0879 14.5149 73.5642 22.0834 75.2578 30.4698Z" fill="#DD3F8F"/>
<path d="M40.3394 31.0234C40.8537 31.5378 41.2039 32.1932 41.3458 32.9066C41.4877 33.62 41.4148 34.3595 41.1365 35.0316C40.8581 35.7036 40.3868 36.278 39.782 36.6822C39.1772 37.0864 38.4662 37.3022 37.7388 37.3023H10.7499C10.7501 38.0554 10.6019 38.8011 10.3138 39.4969C10.0257 40.1927 9.60333 40.8249 9.07083 41.3574C8.53832 41.8899 7.90612 42.3123 7.21033 42.6004C6.51455 42.8885 5.76882 43.0366 5.01574 43.0364L0.335509 43.0765C0.112484 41.3935 0.000419355 39.6977 4.07417e-05 38C-0.0131275 29.0208 3.16619 20.3294 8.97012 13.4781L32.3164 13.4915C32.9785 13.48 33.6362 13.6006 34.2513 13.8461C34.8663 14.0915 35.4263 14.457 35.8985 14.9212C36.3708 15.3854 36.7459 15.939 37.002 16.5497C37.258 17.1604 37.3899 17.816 37.3899 18.4782C37.3899 19.1404 37.258 19.796 37.002 20.4067C36.7459 21.0174 36.3708 21.571 35.8985 22.0352C35.4263 22.4994 34.8663 22.8649 34.2513 23.1104C33.6362 23.3559 32.9785 23.4764 32.3164 23.465H29.5391C29.1076 23.4557 28.6787 23.5327 28.2773 23.6915C27.876 23.8502 27.5105 24.0875 27.202 24.3894C26.8936 24.6912 26.6486 25.0517 26.4813 25.4495C26.314 25.8473 26.2279 26.2745 26.2279 26.7061C26.2279 27.1377 26.314 27.5649 26.4813 27.9627C26.6486 28.3605 26.8936 28.721 27.202 29.0228C27.5105 29.3247 27.876 29.562 28.2773 29.7207C28.6787 29.8795 29.1076 29.9565 29.5391 29.9472H37.7358C38.2193 29.946 38.6983 30.0405 39.1452 30.2252C39.592 30.4099 39.9979 30.6811 40.3394 31.0234Z" fill="#DD3F8F"/>
<path d="M19.6413 35.0075C19.631 27.3235 21.9609 19.8186 26.321 13.4915L8.97012 13.4781C3.16619 20.3294 -0.0131275 29.0208 4.07418e-05 38C0.000419355 39.6977 0.112484 41.3935 0.335509 43.0765L5.01574 43.0364C5.76882 43.0366 6.51455 42.8885 7.21034 42.6004C7.90612 42.3123 8.53833 41.8899 9.07083 41.3574C9.60333 40.8249 10.0257 40.1927 10.3138 39.4969C10.6019 38.8011 10.7501 38.0554 10.7499 37.3023H19.7111C19.6665 36.5423 19.6413 35.7734 19.6413 35.0075Z" fill="#CD3582"/>
</g>
<defs>
<radialGradient id="paint0_radial_113_688" cx="0" cy="0" r="1" gradientUnits="userSpaceOnUse" gradientTransform="translate(13.7222 65.9722) rotate(-41.0915) scale(60.2245)">
<stop stop-color="#794993"/>
<stop offset="1" stop-color="#DD3F8F"/>
</radialGradient>
<clipPath id="clip0_113_688">
<rect width="44.9091" height="44.9091" fill="white" transform="translate(15.5454 16.4091)"/>
</clipPath>
<clipPath id="clip1_113_688">
<rect width="76" height="76" fill="white"/>
</clipPath>
</defs>
</svg>
