<svg width="87" height="87" viewBox="0 0 87 87" fill="none" xmlns="http://www.w3.org/2000/svg">
<g clip-path="url(#clip0_113_769)">
<path d="M86.9998 43.499C87.0067 49.2833 85.8554 55.0104 83.6141 60.3428C82.3365 63.3888 80.7103 66.2765 78.7682 68.9482C77.5087 70.7104 76.1125 72.3707 74.5924 73.9138C68.4661 80.1772 60.592 84.4457 52.0001 86.1611C43.4083 87.8764 34.4987 86.9586 26.437 83.5278H26.4229C18.5761 80.1852 11.8865 74.6074 7.18785 67.4893C2.48923 60.3713 -0.0106407 52.0279 -0.000200825 43.499C-0.0115245 35.4816 2.19753 27.6176 6.38208 20.7788C10.5666 13.9399 16.5632 8.3934 23.7072 4.75398C33.9547 -0.466546 45.849 -1.42984 56.803 2.07363C60.0428 3.1116 63.1472 4.53234 66.0504 6.30575C70.3704 8.93021 74.2032 12.2832 77.3786 16.216C81.255 21.0127 84.0615 26.5824 85.6102 32.5519V32.566C86.4323 35.7105 86.8937 38.9383 86.9857 42.1871C86.9998 42.6244 86.9998 43.0687 86.9998 43.499Z" fill="#DD3F8F"/>
<path d="M56.8032 2.07376C55.5054 4.0417 51.654 4.18982 49.1077 5.88972C41.5461 10.933 31.6075 6.79963 30.1968 2.07376C38.8501 -0.691253 48.1499 -0.691253 56.8032 2.07376Z" fill="#F56EB3"/>
<path d="M42.442 26.5019C39.8181 29.1276 32.4417 26.6677 27.3348 30.9104C22.228 35.1531 22.4343 39.4434 18.7276 41.242C15.0209 43.0407 11.7268 40.9881 10.7922 38.4629C9.85761 35.9378 9.82939 33.9963 7.23717 33.596C4.64494 33.1957 2.4054 34.4071 0.61377 36.1776V36.1635C1.61386 30.3384 3.79018 24.7781 7.00996 19.8218C10.2297 14.8655 14.4255 10.6171 19.3413 7.33569C16.4775 15.8423 23.7692 19.8804 28.1584 17.8419C32.5475 15.8035 33.8013 19.2844 36.3001 19.9262C38.201 20.4147 40.43 18.8911 42.4632 20.1379C44.4964 21.3846 44.1526 24.7967 42.442 26.5019Z" fill="#C9287A"/>
<path d="M82.4151 24.0385C76.2079 28.2071 70.9265 30.5118 65.0137 32.2135C59.101 33.9152 52.9731 34.5588 50.9064 34.0227C48.8397 33.4867 46.2122 32.2347 47.3795 29.1099C48.4182 25.9112 51.7987 28.0166 54.8 25.7172C57.8013 23.4177 58.1999 17.8172 66.2622 19.7217C71.2351 20.8855 75.3474 17.6832 77.3718 16.2231C79.3268 18.642 81.0153 21.2646 82.4081 24.0455L82.4151 24.0385Z" fill="#C9287A"/>
<path d="M87.0002 43.4991C87.007 49.2833 85.8558 55.0105 83.6144 60.3429C82.1561 60.2988 81.3643 59.9902 79.8971 58.4525C78.1425 56.6186 78.7685 52.8785 79.9747 48.9303C81.9145 42.5821 76.2045 41.5241 76.2151 35.846C76.2151 32.388 80.7012 29.6442 85.6106 32.5449V32.5661C86.4326 35.7105 86.8941 38.9383 86.9861 42.1871C87.0002 42.6244 87.0002 43.0688 87.0002 43.4991Z" fill="#C9287A"/>
<path d="M78.7684 68.9483C77.5089 70.7105 76.1127 72.3709 74.5926 73.914C72.4342 74.3354 69.9072 74.6916 65.9871 73.0041C62.067 71.3165 57.8754 71.6075 55.1439 73.7447C52.4123 75.8819 49.5997 78.5993 45.5385 78.9149C41.5215 79.227 37.7795 78.7227 35.0426 80.7277C32.3058 82.7326 30.7188 85.0868 26.4372 83.5209H26.4231C20.5606 81.0139 15.3196 77.2511 11.0698 72.4981C6.81999 67.745 3.66484 62.1174 1.8269 56.0121C2.83558 53.6915 2.81971 52.3407 5.96741 52.6687C9.11511 52.9967 10.0233 56.6487 11.434 59.5177C12.8447 62.3867 15.2712 64.8484 19.5457 64.1025C22.0851 63.6617 23.2489 58.4756 25.3879 55.5554C26.841 53.5698 30.0204 53.6351 31.44 55.6365C34.9439 60.574 39.5905 59.657 45.0871 60.3289C50.5837 61.0007 53.6591 63.9791 54.9058 65.4568C56.1525 66.9345 58.2845 69.2392 61.9242 67.1214C65.5639 65.0036 75.298 60.9637 78.7684 68.9342V68.9483Z" fill="#C9287A"/>
<path d="M59.3529 48.4401C60.0154 46.4487 58.6691 44.2078 56.3459 43.435C54.0226 42.6622 51.6022 43.6501 50.9398 45.6415C50.2773 47.6329 51.6236 49.8738 53.9468 50.6466C56.2701 51.4195 58.6905 50.4316 59.3529 48.4401Z" fill="#C9287A"/>
<path d="M70.5983 42.1635C71.0149 40.9113 70.1479 39.4955 68.6619 39.0012C67.176 38.5069 65.6337 39.1212 65.2171 40.3734C64.8006 41.6256 65.6675 43.0413 67.1535 43.5357C68.6395 44.03 70.1818 43.4156 70.5983 42.1635Z" fill="#C9287A"/>
<path d="M69.7792 55.6565C70.1441 54.5596 69.3859 53.3197 68.0856 52.8872C66.7854 52.4547 65.4355 52.9933 65.0706 54.0902C64.7057 55.1871 65.464 56.4269 66.7642 56.8594C68.0644 57.292 69.4143 56.7534 69.7792 55.6565Z" fill="#C9287A"/>
</g>
<defs>
<clipPath id="clip0_113_769">
<rect width="87" height="87" fill="white"/>
</clipPath>
</defs>
</svg>
