<?xml version="1.0" standalone="no"?>
<!DOCTYPE svg PUBLIC "-//W3C//DTD SVG 20010904//EN"
 "http://www.w3.org/TR/2001/REC-SVG-20010904/DTD/svg10.dtd">
<svg version="1.0" xmlns="http://www.w3.org/2000/svg"
 width="700.000000pt" height="700.000000pt" viewBox="0 0 700.000000 700.000000"
 preserveAspectRatio="xMidYMid meet">
<metadata>
Created by potrace 1.14, written by Peter Selinger 2001-2017
</metadata>
<g transform="translate(0.000000,700.000000) scale(0.100000,-0.100000)"
fill="#000000" stroke="none">
<path d="M3278 6995 c-1 -1 -41 -6 -87 -9 -124 -10 -164 -16 -351 -50 -90 -16
-200 -42 -300 -71 -131 -38 -370 -122 -385 -136 -5 -5 -14 -9 -21 -9 -21 0
-263 -120 -389 -193 -103 -60 -265 -165 -315 -204 -8 -6 -51 -40 -95 -74 -91
-71 -207 -174 -310 -276 -486 -481 -837 -1142 -960 -1808 -10 -49 -18 -97 -20
-105 -2 -9 -6 -43 -10 -75 -4 -33 -9 -69 -11 -80 -25 -135 -25 -673 0 -812 2
-10 7 -45 11 -78 4 -32 9 -68 11 -80 2 -11 7 -36 10 -55 15 -94 61 -280 101
-410 171 -554 469 -1046 878 -1452 360 -358 787 -629 1265 -805 209 -76 507
-152 705 -178 22 -2 56 -7 75 -10 192 -27 629 -27 848 1 296 37 648 131 922
246 118 49 356 168 407 202 21 15 41 26 46 26 4 0 13 5 20 10 7 6 64 44 127
86 260 172 482 369 715 635 17 19 46 54 65 79 19 25 38 50 43 55 158 193 365
557 475 835 71 178 147 428 177 580 20 104 36 195 40 240 4 30 8 61 11 69 24
75 24 790 -1 831 -2 3 -6 32 -10 64 -3 33 -8 62 -9 65 -2 3 -7 29 -10 56 -11
84 -54 263 -97 405 -188 625 -563 1205 -1053 1627 -55 49 -103 90 -106 93 -31
32 -363 260 -380 260 -5 0 -10 5 -10 10 0 6 -5 10 -10 10 -6 0 -29 12 -53 27
-115 73 -406 205 -587 267 -284 98 -431 130 -820 182 -47 6 -546 15 -552 9z
m462 -449 c51 -4 101 -9 113 -11 12 -2 42 -6 67 -9 120 -15 342 -62 431 -92
25 -8 54 -16 65 -18 56 -11 343 -128 459 -188 124 -63 352 -199 397 -237 7 -6
47 -37 88 -68 255 -193 541 -500 695 -747 120 -192 195 -334 264 -500 46 -109
47 -113 28 -97 -27 22 -195 79 -284 96 -160 30 -274 39 -513 39 -314 1 -478
-12 -500 -40 -17 -19 13 -31 94 -39 250 -22 432 -113 465 -232 43 -154 -68
-273 -406 -434 -79 -38 -145 -69 -148 -69 -2 0 -13 33 -25 73 -140 491 -478
873 -941 1065 -76 31 -227 78 -283 87 -17 3 -58 10 -91 16 -76 14 -303 18
-398 7 -541 -61 -1007 -380 -1251 -858 -91 -178 -132 -304 -161 -493 -36 -234
-18 -481 51 -710 15 -48 25 -89 23 -91 -2 -3 -40 -9 -84 -15 -44 -6 -102 -14
-130 -18 -27 -4 -108 -7 -180 -8 -190 0 -284 37 -326 129 -62 137 32 308 279
505 46 37 54 61 21 61 -25 0 -187 -84 -327 -169 -51 -31 -107 -65 -125 -76
-44 -27 -265 -188 -302 -220 -121 -107 -210 -204 -263 -290 -18 -27 -32 -45
-32 -40 0 6 -7 48 -15 95 -8 47 -18 108 -21 135 -3 28 -7 56 -10 64 -22 66
-22 586 0 696 2 11 7 47 10 80 10 88 59 321 86 410 89 288 187 514 322 739
410 682 1074 1180 1843 1381 183 48 395 83 560 92 55 3 101 6 102 7 5 4 272
-2 353 -8z m2753 -2421 c50 -296 60 -400 60 -605 1 -128 -10 -348 -17 -372 -3
-7 -7 -35 -10 -63 -41 -366 -196 -807 -407 -1157 -54 -90 -192 -294 -208 -308
-4 -3 -26 -30 -51 -60 -96 -118 -240 -266 -355 -365 -38 -33 -78 -68 -89 -77
-10 -9 -70 -54 -132 -98 -782 -558 -1753 -719 -2673 -443 -292 87 -640 258
-886 436 -239 172 -456 382 -659 637 -31 39 -148 213 -190 284 -79 130 -167
312 -221 452 l-23 62 65 -29 c76 -35 217 -73 323 -88 41 -6 93 -14 115 -17 65
-9 532 -12 635 -3 52 4 129 11 170 14 88 7 317 35 410 49 8 2 50 -28 94 -66
202 -175 425 -291 676 -351 149 -37 166 -39 355 -42 340 -6 630 77 910 263
317 209 555 537 655 903 l24 86 185 89 c594 285 1026 589 1192 839 23 35 44
64 45 62 1 -1 4 -15 7 -32z"/>
</g>
</svg>
