<svg xmlns="http://www.w3.org/2000/svg" viewBox="0 0 512 512"><defs><style>.cls-1{isolation:isolate;}.cls-2{fill:#e8da58;}.cls-3,.cls-4{fill:#d3b94a;}.cls-4{mix-blend-mode:multiply;opacity:0.24;}</style></defs><g class="cls-1"><g id="Layer_2" data-name="Layer 2"><g id="Capa_1" data-name="Capa 1"><circle class="cls-2" cx="256" cy="256" r="256"/><ellipse class="cls-3" cx="300.22" cy="96.59" rx="29.54" ry="16.55" transform="translate(-6.27 22.25) rotate(-4.2)"/><path class="cls-3" d="M383.12,33.81C278.32,78.18,221.49,24.27,89,62.06A255.84,255.84,0,0,1,383.12,33.81Z"/><path class="cls-3" d="M496.37,167.9S449.1,192.48,358.8,194.56s-140-15.71-269.82.84c-38.73,4.94-85.8,19.91-85.8,19.91a253.58,253.58,0,0,1,29.57-84.66s65.64-11.6,126.63-11.6c42.72,0,77.49,11.32,98.74,18.48,29.72,10,65.52,9.14,92.18-11.16C369.57,111.69,394,103.22,414.77,100S455,95,455,95a250.93,250.93,0,0,1,41.4,72.91Z"/><path class="cls-3" d="M512,255.74V256a258.68,258.68,0,0,1-2.91,39s-55.44-7.27-123.21,7.19c-62.59,13.36-64.07,44.43-120.91,48.73-54.81,4.14-75.22-27.89-149.29-28.05-67.76-.15-103.06,12.74-103.06,12.74a236.45,236.45,0,0,1-8.38-33.55s58.22,2,118.74-10.77c66.75-14.08,69.2-55.68,127.28-60.47s61.42,31.36,131.22,37.48C463.29,275.51,512,255.74,512,255.74Z"/><path class="cls-3" d="M476.16,386.83a260.71,260.71,0,0,1-38.31,49.43h-.09s-48.59,23.35-115.18,23.83S238,443.94,158.46,447.74A324.65,324.65,0,0,0,96.22,456a253.45,253.45,0,0,1-52.35-56.59s38.82-10.88,90.46-11.67c64.67-1,129.37,15.29,196.84,18.73C418.82,410.89,476.16,386.83,476.16,386.83Z"/><ellipse class="cls-3" cx="432.31" cy="345.19" rx="48.9" ry="7.83" transform="translate(-39.39 56.14) rotate(-7.11)"/><ellipse class="cls-2" cx="256" cy="291.31" rx="26" ry="20.52" transform="translate(-36.57 36.75) rotate(-7.67)"/><path class="cls-4" d="M263.14.11C378.32,28.3,463.8,132.18,463.8,256.05S378.32,483.81,263.14,512C401.23,508.19,512,395.06,512,256.05S401.23,3.92,263.14.11Z"/><ellipse class="cls-2" cx="115.91" cy="159.76" rx="48.9" ry="6.28" transform="translate(-14.16 11.3) rotate(-5.26)"/></g></g></g></svg>